<svg viewBox="0 0 256 256" xmlns="http://www.w3.org/2000/svg">
  <circle cx="128" cy="128" r="128" fill="#cdb083"/>
  <circle cx="128" cy="128" r="121" fill="none" stroke="#b8935f" stroke-width="14"/>
  <circle cx="128" cy="133" r="93" fill="#b8935f"/>
  <circle cx="128" cy="128" r="92" fill="#f4e9d0" stroke="#3a2f22" stroke-width="7"/>
  <path d="M141 161 C137 122 145 98 141 71" fill="none" stroke="#3a2f22" stroke-width="12" stroke-linecap="round"/>
  <path d="M140 70 C162 73 170 92 158 110 C167 93 158 82 140 84 Z" fill="#3a2f22" stroke="#3a2f22" stroke-width="5" stroke-linejoin="round"/>
  <g stroke="#3a2f22" stroke-width="8" stroke-linejoin="round">
    <ellipse cx="118" cy="94" rx="22" ry="16.5" fill="#6f42ab" transform="rotate(-21 118 94)"/>
    <ellipse cx="119" cy="116" rx="22" ry="16.5" fill="#3fb0ac" transform="rotate(-19 119 116)"/>
    <ellipse cx="117" cy="138" rx="22" ry="16.5" fill="#f2b705" transform="rotate(-21 117 138)"/>
    <ellipse cx="118" cy="160" rx="22" ry="16.5" fill="#e2574c" transform="rotate(-20 118 160)"/>
  </g>
</svg>