<svg viewBox="0 0 256 256" xmlns="http://www.w3.org/2000/svg">
  <circle cx="128" cy="128" r="128" fill="#cdb083"/>
  <circle cx="128" cy="128" r="120" fill="none" stroke="#b8935f" stroke-width="11"/>
  <rect x="54" y="58" width="148" height="148" rx="28" ry="28" fill="#b8935f"/>
  <rect x="52" y="52" width="148" height="148" rx="28" ry="28" fill="#f4e9d0" stroke="#3a2f22" stroke-width="9" stroke-linejoin="round"/>
  <g fill="#b8935f" stroke="#3a2f22" stroke-width="6.5" stroke-linejoin="round" stroke-linecap="round">
    <rect x="97" y="64" width="28" height="28" rx="8"/>
    <rect x="130" y="64" width="28" height="28" rx="8"/>
    <rect x="64" y="97" width="28" height="28" rx="8"/>
    <rect x="130" y="97" width="28" height="28" rx="8"/>
    <rect x="64" y="130" width="28" height="28" rx="8"/>
    <rect x="163" y="130" width="28" height="28" rx="8"/>
    <rect x="97" y="163" width="28" height="28" rx="8"/>
    <rect x="130" y="163" width="28" height="28" rx="8"/>
  </g>
  <g stroke="#3a2f22" stroke-width="6.5" stroke-linejoin="round" stroke-linecap="round">
    <rect x="64" y="64" width="28" height="28" rx="8" fill="#e2574c"/>
    <rect x="97" y="97" width="28" height="28" rx="8" fill="#f2b705"/>
    <rect x="130" y="130" width="28" height="28" rx="8" fill="#3fb0ac"/>
    <rect x="163" y="163" width="28" height="28" rx="8" fill="#6f42ab"/>
    <rect x="163" y="64" width="28" height="28" rx="8" fill="#5bb974"/>
    <rect x="64" y="163" width="28" height="28" rx="8" fill="#ef8a3c"/>
  </g>
</svg>